<svg width="1152" height="412" viewBox="0 0 1152 412" fill="none" xmlns="http://www.w3.org/2000/svg">
<path fill-rule="evenodd" clip-rule="evenodd" d="M13.2865 183.714C0.978038 196.022 0.978071 215.978 13.2866 228.287L184.714 399.714C197.022 412.022 216.978 412.022 229.287 399.714L400.714 228.287C413.022 215.978 413.022 196.022 400.714 183.714L229.287 12.2865C216.978 -0.0219684 197.022 -0.0219345 184.714 12.2866L13.2865 183.714ZM73.728 192.493C66.6985 199.522 66.6985 210.919 73.728 217.949L194.539 338.759C201.568 345.789 212.965 345.789 219.994 338.759L340.805 217.949C347.835 210.919 347.835 199.522 340.805 192.493L219.994 71.6821C212.965 64.6527 201.568 64.6527 194.539 71.6821L73.728 192.493Z" fill="url(#paint0_linear_147_63)"/>
<path d="M902.599 133.88C901.099 136.88 898.314 139.022 894.244 140.307C890.174 141.593 884.711 142.235 877.855 142.235C871.214 142.235 865.859 141.593 861.788 140.307C857.718 139.022 854.826 136.772 853.112 133.559C851.612 130.346 850.648 127.561 850.22 125.204C850.006 122.633 849.898 118.884 849.898 113.957C849.898 109.03 850.006 105.388 850.22 103.031C850.648 100.461 851.612 97.6755 853.112 94.6763C856.111 88.8921 864.466 86 878.177 86C891.673 86 899.814 88.8921 902.599 94.6763C904.313 97.8898 905.277 100.782 905.491 103.353C905.919 105.709 906.134 109.351 906.134 114.278C906.134 119.206 905.919 122.955 905.491 125.525C905.277 127.882 904.313 130.667 902.599 133.88Z" fill="#0496FF"/>
<path d="M851.177 188.363C851.177 183.612 851.28 180.1 851.487 177.828C851.9 175.349 852.829 172.561 854.275 169.462C857.167 164.092 865.223 161.406 878.443 161.406C888.358 161.406 895.381 163.162 899.513 166.674C903.024 169.566 904.883 174.007 905.09 179.997C905.296 182.063 905.4 185.058 905.4 188.982V297.428C905.4 302.179 905.193 305.794 904.78 308.273C904.573 310.545 903.644 313.23 901.991 316.329C899.306 321.699 891.353 324.384 878.133 324.384C865.12 324.384 857.167 321.596 854.275 316.019C852.829 312.92 851.9 310.235 851.487 307.963C851.28 305.691 851.177 302.076 851.177 297.118V188.363Z" fill="#3F3F46"/>
<path d="M1120.81 271.526C1129.61 271.526 1135.92 272.557 1139.76 274.617C1143.82 276.472 1146.52 279.254 1147.88 282.963C1149.46 286.672 1150.25 291.412 1150.25 297.181C1150.25 302.951 1149.68 307.588 1148.55 311.091C1147.43 314.594 1146.07 317.273 1144.49 319.127C1142.91 320.982 1140.55 322.321 1137.39 323.146C1133.78 324.382 1128.03 325 1120.13 325H979.366C974.177 325 969.214 323.764 964.477 321.291C954.551 316.139 949.588 308 949.588 296.872C949.588 291.515 950.942 287.187 953.649 283.89L1058.55 151.286H980.719C975.305 151.286 971.245 151.183 968.538 150.977C966.056 150.565 963.011 149.638 959.401 148.195C952.859 145.31 949.588 137.583 949.588 125.013C949.588 111.825 952.634 103.788 958.725 100.903C962.108 99.2545 965.041 98.3272 967.522 98.1211C970.229 97.709 974.29 97.5029 979.704 97.5029H1115.73C1120.92 97.5029 1125.88 98.7393 1130.62 101.212C1135.36 103.685 1138.97 106.982 1141.45 111.103C1144.16 115.225 1145.51 120.067 1145.51 125.631C1145.51 131.195 1144.16 135.625 1141.45 138.922L1036.55 271.526H1120.81Z" fill="#3F3F46"/>
<path d="M799.371 107.136C800.941 110.231 801.824 113.016 802.021 115.492C802.413 117.968 802.61 121.578 802.61 126.323V298.077C802.61 312.312 798.88 320.667 791.421 323.143C787.691 324.381 782.98 325 777.288 325C771.595 325 767.08 324.484 763.743 323.453C760.406 322.421 757.854 321.183 756.088 319.739C754.321 318.295 752.947 316.232 751.966 313.55C750.984 310.043 750.493 304.679 750.493 297.458V193.787C745.586 200.182 738.421 210.395 728.999 224.424C719.577 238.247 713.59 246.912 711.038 250.419C708.486 253.926 706.719 256.402 705.738 257.846C704.757 259.084 702.303 260.941 698.377 263.417C694.647 265.686 690.525 266.821 686.01 266.821C681.692 266.821 677.668 265.789 673.938 263.726C670.405 261.457 667.853 259.29 666.283 257.227L663.927 253.823C660.001 248.665 652.248 237.731 640.666 221.02C629.085 204.102 622.803 195.025 621.822 193.787V298.077C621.822 302.822 621.626 306.432 621.233 308.908C621.037 311.177 620.153 313.756 618.583 316.645C615.639 322.215 607.983 325 595.617 325C583.643 325 576.183 322.215 573.239 316.645C571.669 313.756 570.687 311.074 570.294 308.598C570.098 306.123 570 302.409 570 297.458V125.704C570 120.959 570.098 117.452 570.294 115.182C570.687 112.707 571.669 109.922 573.239 106.827C576.183 101.463 583.839 98.7808 596.205 98.7808C601.505 98.7808 606.02 99.5028 609.75 100.947C613.676 102.185 616.227 103.526 617.405 104.97L619.172 106.827L686.01 199.048C719.381 152.628 741.66 121.991 752.849 107.136C756.186 101.566 764.038 98.7808 776.404 98.7808C788.967 98.7808 796.623 101.566 799.371 107.136Z" fill="#3F3F46"/>
<defs>
<linearGradient id="paint0_linear_147_63" x1="207" y1="409" x2="207" y2="2.99999" gradientUnits="userSpaceOnUse">
<stop stop-color="#3366FF"/>
<stop offset="1" stop-color="#33CCFF"/>
</linearGradient>
</defs>
</svg>
