<svg width="1000" height="1000" fill="none" xmlns="http://www.w3.org/2000/svg"><path fill-rule="evenodd" clip-rule="evenodd" d="M138.099 468.377c-17.465 17.465-17.465 45.782 0 63.247l330.278 330.277c17.465 17.466 45.782 17.466 63.247 0l330.278-330.277c17.465-17.465 17.465-45.782 0-63.248L531.624 138.099c-17.465-17.465-45.782-17.465-63.247 0L138.099 468.377Zm112.754 12.142c-9.975 9.974-9.975 26.146 0 36.121l230.358 230.358c9.975 9.975 26.146 9.975 36.121 0L747.69 516.64c9.975-9.975 9.975-26.147 0-36.121L517.332 250.161c-9.975-9.975-26.147-9.975-36.121 0L250.853 480.519Z" fill="url(#a)"/><defs><linearGradient id="a" x1="500" y1="875" x2="500" y2="125" gradientUnits="userSpaceOnUse"><stop stop-color="#36F"/><stop offset="1" stop-color="#3CF"/></linearGradient></defs></svg>
